<svg xmlns="http://www.w3.org/2000/svg" style="shape-rendering:geometricPrecision;text-rendering:geometricPrecision;image-rendering:optimizeQuality;fill-rule:evenodd;clip-rule:evenodd" viewBox="0 0 128 128"><path style="opacity:1" fill="#d7a335" d="M58.215 -0.121h11.33c24.469 3.129 42.106 15.744 52.912 37.846a19.55 19.55 0 0 1 1.326 3.616 3897.382 3897.382 0 0 1 -29.168 -18.079 219.79 219.79 0 0 0 -14.222 -8.919c-3.566 -3.389 -7.824 -5.357 -12.776 -5.906C51.747 6.989 42.949 14.181 41.22 30.011a70.329 70.329 0 0 0 0.362 12.053c-0.267 3.363 0.256 6.577 1.567 9.642a8.148 8.148 0 0 0 1.567 2.169c0.567 0.417 1.21 0.578 1.928 0.482a57.243 57.243 0 0 0 1.085 8.196 128.232 128.232 0 0 0 3.013 5.303 100.459 100.459 0 0 1 -0.362 11.571 7.316 7.316 0 0 1 -1.326 1.808 26.678 26.678 0 0 0 -2.411 1.567c-6.162 0.556 -12.028 2.122 -17.597 4.701 -3.853 2.275 -6.545 5.529 -8.075 9.763a49.831 49.831 0 0 0 -2.531 11.812C7.717 98.075 1.53 84.897 -0.121 69.544v-11.33C3.008 33.746 15.623 16.109 37.725 5.303 44.313 2.472 51.143 0.664 58.215 -0.121Z"/><path style="opacity:1" fill="#292927" d="M80.392 14.343c4.551 6.103 6.64 13.014 6.267 20.731 0.134 2.663 -0.188 5.234 -0.964 7.714 -0.032 -1.439 -0.755 -2.162 -2.169 -2.169 -0.106 0.016 -0.186 -0.024 -0.241 -0.121 0.305 -0.322 0.425 -0.684 0.362 -1.085 -0.628 0.322 -1.391 0.483 -2.29 0.482a69.468 69.468 0 0 0 -1.326 -8.678c-0.636 -3.405 -2.283 -6.178 -4.942 -8.316a10.493 10.493 0 0 0 -3.013 -0.362 292.037 292.037 0 0 1 -20.61 0.844c-2.764 0.835 -4.572 2.643 -5.424 5.424 -0.121 3.695 -0.161 7.391 -0.121 11.088 -0.778 0.042 -1.501 0.203 -2.169 0.482 -0.436 -0.002 -0.838 0.118 -1.205 0.362 -0.238 0.522 -0.56 0.964 -0.964 1.326a70.329 70.329 0 0 1 -0.362 -12.053c1.728 -15.831 10.527 -23.022 26.395 -21.574 4.951 0.548 9.21 2.517 12.776 5.906Z"/><path style="opacity:1" fill="#a17e36" d="M80.392 14.343a219.79 219.79 0 0 1 14.222 8.919 3897.382 3897.382 0 0 0 29.168 18.079 64.757 64.757 0 0 1 4.098 16.874v11.33c-1.63 15.23 -7.736 28.327 -18.32 39.292 -0.155 -6.457 -2.043 -12.323 -5.665 -17.597 -2.771 -2.733 -6.026 -4.702 -9.763 -5.906a81.907 81.907 0 0 0 -12.535 -2.531c-1.785 -0.59 -3.11 -1.715 -3.977 -3.375a98.725 98.725 0 0 1 -0.362 -11.571c2.294 -4.151 3.499 -8.65 3.616 -13.499 1.975 -0.568 3.3 -1.853 3.977 -3.857 0.731 -2.512 1.012 -5.084 0.844 -7.714 0.776 -2.48 1.098 -5.051 0.964 -7.714 0.372 -7.717 -1.717 -14.627 -6.267 -20.731Z"/><path style="opacity:1" fill="#deba96" d="M81.356 39.895a48.546 48.546 0 0 0 -6.629 -0.482 396.947 396.947 0 0 0 -10.968 0.723 402.716 402.716 0 0 1 -10.968 -0.723 58.256 58.256 0 0 0 -6.87 0.482c-0.04 -3.697 0 -7.393 0.121 -11.088 0.852 -2.781 2.66 -4.588 5.424 -5.424a291.923 291.923 0 0 0 20.61 -0.844c1.032 -0.024 2.036 0.096 3.013 0.362 2.659 2.139 4.306 4.911 4.942 8.316a69.468 69.468 0 0 1 1.326 8.678Z"/><path style="opacity:1" fill="#2b373d" d="M81.356 39.895c0.899 0.001 1.662 -0.16 2.29 -0.482 0.064 0.401 -0.057 0.762 -0.362 1.085 0.055 0.096 0.135 0.136 0.241 0.121v0.964c-0.396 -0.052 -0.758 0.029 -1.085 0.241a218.007 218.007 0 0 1 -1.326 5.785c-0.283 0.244 -0.443 0.566 -0.482 0.964 -0.961 0.842 -2.086 1.364 -3.375 1.567a47.27 47.27 0 0 1 -6.75 0c-3.013 -0.524 -4.58 -2.332 -4.701 -5.424a23.728 23.728 0 0 1 -0.121 -3.375h-3.857c0.159 2.152 -0.122 4.241 -0.844 6.267 -0.385 1.109 -1.149 1.792 -2.29 2.049a10.458 10.458 0 0 1 -1.928 0.482 43.958 43.958 0 0 1 -6.508 0c-2.155 -0.23 -3.441 -1.395 -3.857 -3.495 -0.013 -0.514 -0.254 -0.835 -0.723 -0.964a18.377 18.377 0 0 0 -0.723 -4.098h-0.723c0.102 -0.55 -0.059 -0.952 -0.482 -1.205 0.668 -0.279 1.392 -0.44 2.169 -0.482a58.256 58.256 0 0 1 6.87 -0.482 402.716 402.716 0 0 0 10.968 0.723 396.947 396.947 0 0 1 10.968 -0.723 48.546 48.546 0 0 1 6.629 0.482Z"/><path style="opacity:1" fill="#ddba96" d="M50.26 40.618a69.518 69.518 0 0 1 5.785 0.121c4.086 -0.31 5.492 1.498 4.218 5.424 -0.247 1.37 -1.01 2.294 -2.29 2.772 -3.283 0.94 -6.497 0.779 -9.642 -0.482 -1.239 -1.79 -1.681 -3.759 -1.326 -5.906 0.636 -1.422 1.721 -2.065 3.254 -1.928Z"/><path style="opacity:1" fill="#deba96" d="M68.821 40.859a89.308 89.308 0 0 1 11.088 0.362c1.379 2.699 1.057 5.19 -0.964 7.473 -3.377 1.102 -6.752 1.102 -10.124 0 -1.531 -1.946 -2.053 -4.155 -1.567 -6.629 0.435 -0.561 0.958 -0.962 1.567 -1.205Z"/><path style="opacity:1" fill="#deba96" d="M80.633 48.573a88.148 88.148 0 0 1 -2.772 11.571c-0.543 1.592 -1.628 2.115 -3.254 1.567 -2.641 -1.316 -4.971 -3.044 -6.991 -5.183 -0.39 -0.355 -0.872 -0.516 -1.446 -0.482a43.166 43.166 0 0 0 -2.531 0.482 35.665 35.665 0 0 1 -2.29 -0.482c-0.496 -0.015 -0.897 0.145 -1.205 0.482a82.725 82.725 0 0 1 -6.991 4.942 6.084 6.084 0 0 1 -2.411 0c-1.196 -1.549 -2.04 -3.276 -2.531 -5.183a69.995 69.995 0 0 1 -2.049 -9.04c0.007 -0.258 0.087 -0.459 0.241 -0.603 0.416 2.1 1.702 3.265 3.857 3.495a43.958 43.958 0 0 0 6.508 0 10.458 10.458 0 0 0 1.928 -0.482c1.141 -0.257 1.905 -0.94 2.29 -2.049 0.722 -2.026 1.003 -4.115 0.844 -6.267h3.857a23.728 23.728 0 0 0 0.121 3.375c0.121 3.092 1.688 4.9 4.701 5.424a47.27 47.27 0 0 0 6.75 0c1.288 -0.203 2.413 -0.725 3.375 -1.567Zm-36.881 -8.196c0.423 0.254 0.584 0.655 0.482 1.205h0.723a18.377 18.377 0 0 1 0.723 4.098 243.113 243.113 0 0 1 0.964 8.678c-0.719 0.095 -1.362 -0.065 -1.928 -0.482a8.148 8.148 0 0 1 -1.567 -2.169c-1.311 -3.065 -1.834 -6.279 -1.567 -9.642 0.405 -0.362 0.726 -0.803 0.964 -1.326 0.368 -0.243 0.769 -0.364 1.205 -0.362Z"/><path style="opacity:1" fill="#deba97" d="M83.525 40.618c1.414 0.007 2.137 0.73 2.169 2.169 0.169 2.63 -0.113 5.201 -0.844 7.714 -0.677 2.004 -2.003 3.289 -3.977 3.857a189.333 189.333 0 0 0 0.241 -6.75 218.007 218.007 0 0 0 1.326 -5.785c0.327 -0.212 0.688 -0.293 1.085 -0.241v-0.964Z"/><path style="opacity:1" fill="#81705e" d="M45.68 45.68c0.469 0.129 0.71 0.45 0.723 0.964 -0.154 0.144 -0.234 0.345 -0.241 0.603a69.995 69.995 0 0 0 2.049 9.04c0.491 1.906 1.335 3.634 2.531 5.183a6.082 6.082 0 0 0 2.411 0 82.725 82.725 0 0 0 6.991 -4.942 1368.98 1368.98 0 0 1 3.616 2.169 1284.48 1284.48 0 0 1 3.857 -2.169c2.02 2.139 4.35 3.867 6.991 5.183 1.626 0.548 2.711 0.026 3.254 -1.567a88.148 88.148 0 0 0 2.772 -11.571c0.039 -0.398 0.199 -0.72 0.482 -0.964a189.323 189.323 0 0 1 -0.241 6.75c-0.116 4.849 -1.322 9.348 -3.616 13.499a111.551 111.551 0 0 1 -3.857 5.544 12.108 12.108 0 0 1 -3.375 2.049c-4.045 0.877 -8.062 0.797 -12.053 -0.241a36.446 36.446 0 0 1 -6.629 -6.87c-0.121 1.685 -0.161 3.373 -0.121 5.062l-0.482 -5.544a128.232 128.232 0 0 1 -3.013 -5.303 57.243 57.243 0 0 1 -1.085 -8.196 243.113 243.113 0 0 0 -0.964 -8.678Z"/><path style="opacity:1" fill="#aa8771" d="M67.616 56.527a1284.48 1284.48 0 0 0 -3.857 2.169 1378.545 1378.545 0 0 0 -3.616 -2.169c0.308 -0.337 0.709 -0.498 1.205 -0.482a35.677 35.677 0 0 0 2.29 0.482 43.166 43.166 0 0 1 2.531 -0.482c0.574 -0.034 1.057 0.127 1.446 0.482Z"/><path style="opacity:1" fill="#deba96" d="M60.625 61.831a67.597 67.597 0 0 1 8.919 0.362c1.32 0.966 1.239 1.85 -0.241 2.652 -3.186 1.036 -6.4 1.116 -9.642 0.241a16.681 16.681 0 0 1 -1.567 -1.085c-0.216 -0.609 -0.095 -1.131 0.362 -1.567a30.948 30.948 0 0 1 2.169 -0.603Z"/><path style="opacity:1" fill="#ab8871" d="M77.258 67.857a98.725 98.725 0 0 0 0.362 11.571c0.867 1.66 2.193 2.785 3.977 3.375 -0.6 2.405 -1.644 4.574 -3.134 6.508a24359.508 24359.508 0 0 1 -27.239 -15.91c-0.04 -1.689 0 -3.377 0.121 -5.062a36.446 36.446 0 0 0 6.629 6.87c3.99 1.038 8.008 1.118 12.053 0.241a12.108 12.108 0 0 0 3.375 -2.049 111.551 111.551 0 0 0 3.857 -5.544Z"/><path style="opacity:1" fill="#deba96" d="m50.742 67.857 0.482 5.544c9.062 5.301 18.142 10.604 27.239 15.91 -3.973 3.831 -8.754 5.759 -14.343 5.785 -5.313 -0.11 -10.013 -1.837 -14.102 -5.183 -1.563 -2.153 -2.688 -4.524 -3.375 -7.111a26.678 26.678 0 0 1 2.411 -1.567 7.316 7.316 0 0 0 1.326 -1.808 100.459 100.459 0 0 0 0.362 -11.571Z"/><path style="opacity:1" fill="#1f2120" d="M46.644 82.802c0.687 2.587 1.812 4.958 3.375 7.111 4.088 3.345 8.789 5.073 14.102 5.183 5.589 -0.026 10.37 -1.954 14.343 -5.785 1.489 -1.934 2.534 -4.104 3.134 -6.508A81.907 81.907 0 0 1 94.132 85.333c3.737 1.204 6.991 3.173 9.763 5.906 3.622 5.274 5.51 11.14 5.665 17.597 -11.078 11.002 -24.417 17.35 -40.015 19.043h-11.33c-15.475 -1.672 -28.734 -7.94 -39.774 -18.802a49.831 49.831 0 0 1 2.531 -11.812c1.531 -4.233 4.223 -7.488 8.075 -9.763 5.569 -2.578 11.435 -4.145 17.597 -4.701Z"/></svg>