<svg xmlns="http://www.w3.org/2000/svg" width="1080" height="1080" style="shape-rendering:geometricPrecision;text-rendering:geometricPrecision;image-rendering:optimizeQuality;fill-rule:evenodd;clip-rule:evenodd" viewBox="0 0 1080 1080"><path style="opacity:1" fill="#d7a335" d="M491.186 -1.017h95.593c206.453 26.4 355.267 132.84 446.441 319.322a164.949 164.949 0 0 1 11.186 30.508 32884.163 32884.163 0 0 1 -246.102 -152.542 1854.478 1854.478 0 0 0 -120 -75.254c-30.085 -28.593 -66.018 -45.203 -107.797 -49.831 -133.892 -12.216 -208.129 48.462 -222.712 182.034a593.398 593.398 0 0 0 3.051 101.695c-2.252 28.373 2.156 55.491 13.22 81.356a68.746 68.746 0 0 0 13.22 18.305c4.782 3.517 10.206 4.873 16.271 4.068a482.99 482.99 0 0 0 9.153 69.153 1081.959 1081.959 0 0 0 25.424 44.746 847.627 847.627 0 0 1 -3.051 97.627 61.729 61.729 0 0 1 -11.186 15.254 225.092 225.092 0 0 0 -20.339 13.22c-51.991 4.688 -101.483 17.908 -148.475 39.661 -32.508 19.196 -55.22 46.654 -68.136 82.373a420.447 420.447 0 0 0 -21.356 99.661c-90.476 -92.835 -142.68 -204.022 -156.61 -333.559v-95.593C25.383 284.734 131.823 135.919 318.305 44.746c55.584 -23.892 113.211 -39.146 172.881 -45.763Z"/><path style="opacity:1" fill="#292927" d="M678.305 121.017c38.396 51.498 56.022 109.802 52.881 174.915 1.129 22.466 -1.584 44.16 -8.136 65.085 -0.273 -12.144 -6.374 -18.246 -18.305 -18.305 -0.891 0.132 -1.57 -0.205 -2.034 -1.017 2.573 -2.719 3.59 -5.77 3.051 -9.153 -5.298 2.719 -11.738 4.076 -19.322 4.068a586.135 586.135 0 0 0 -11.186 -73.22c-5.365 -28.733 -19.263 -52.123 -41.695 -70.169a88.536 88.536 0 0 0 -25.424 -3.051 2464.066 2464.066 0 0 1 -173.898 7.119c-23.319 7.047 -38.573 22.302 -45.763 45.763 -1.017 31.18 -1.357 62.365 -1.017 93.559 -6.563 0.358 -12.665 1.715 -18.305 4.068 -3.677 -0.018 -7.068 0.999 -10.169 3.051 -2.009 4.407 -4.721 8.136 -8.136 11.186a593.398 593.398 0 0 1 -3.051 -101.695c14.583 -133.572 88.82 -194.249 222.712 -182.034 41.778 4.627 77.711 21.238 107.797 49.831Z"/><path style="opacity:1" fill="#a17e36" d="M678.305 121.017a1854.478 1854.478 0 0 1 120 75.254 32884.163 32884.163 0 0 0 246.102 152.542 546.391 546.391 0 0 1 34.576 142.373v95.593c-13.751 128.5 -65.276 239.007 -154.576 331.525 -1.308 -54.484 -17.239 -103.975 -47.797 -148.475 -23.384 -23.06 -50.841 -39.671 -82.373 -49.831a691.094 691.094 0 0 0 -105.763 -21.356c-15.057 -4.979 -26.243 -14.469 -33.559 -28.475a832.995 832.995 0 0 1 -3.051 -97.627c19.357 -35.022 29.526 -72.988 30.508 -113.898 16.66 -4.79 27.846 -15.637 33.559 -32.542 6.169 -21.197 8.542 -42.893 7.119 -65.085 6.551 -20.925 9.264 -42.618 8.136 -65.085 3.14 -65.113 -14.485 -123.417 -52.881 -174.915Z"/><path style="opacity:1" fill="#deba96" d="M686.441 336.61a409.607 409.607 0 0 0 -55.932 -4.068 3349.237 3349.237 0 0 0 -92.542 6.102 3397.92 3397.92 0 0 1 -92.542 -6.102c-19.418 0.214 -38.74 1.57 -57.966 4.068 -0.34 -31.194 0 -62.38 1.017 -93.559 7.19 -23.461 22.444 -38.715 45.763 -45.763 58.052 -0.325 116.018 -2.697 173.898 -7.119 8.707 -0.203 17.182 0.814 25.424 3.051 22.432 18.047 36.329 41.437 41.695 70.169a586.135 586.135 0 0 1 11.186 73.22Z"/><path style="opacity:1" fill="#2b373d" d="M686.441 336.61c7.584 0.008 14.024 -1.348 19.322 -4.068 0.539 3.382 -0.478 6.433 -3.051 9.153 0.464 0.812 1.143 1.149 2.034 1.017v8.136c-3.344 -0.435 -6.395 0.244 -9.153 2.034a1839.437 1839.437 0 0 1 -11.186 48.814c-2.388 2.062 -3.742 4.774 -4.068 8.136 -8.111 7.102 -17.603 11.51 -28.475 13.22 -18.982 1.357 -37.967 1.357 -56.949 0 -25.422 -4.42 -38.642 -19.674 -39.661 -45.763a200.201 200.201 0 0 1 -1.017 -28.475h-32.542c1.344 18.159 -1.027 35.786 -7.119 52.881 -3.25 9.354 -9.692 15.116 -19.322 17.288a88.241 88.241 0 0 1 -16.271 4.068c-18.305 1.357 -36.61 1.357 -54.915 0 -18.185 -1.94 -29.032 -11.772 -32.542 -29.492 -0.11 -4.336 -2.144 -7.047 -6.102 -8.136a155.052 155.052 0 0 0 -6.102 -34.576h-6.102c0.86 -4.639 -0.496 -8.03 -4.068 -10.169 5.64 -2.353 11.742 -3.71 18.305 -4.068a491.534 491.534 0 0 1 57.966 -4.068 3397.92 3397.92 0 0 0 92.542 6.102 3349.237 3349.237 0 0 1 92.542 -6.102 409.607 409.607 0 0 1 55.932 4.068Z"/><path style="opacity:1" fill="#ddba96" d="M424.068 342.712c16.285 -0.338 32.557 0 48.814 1.017 34.477 -2.618 46.342 12.637 35.593 45.763 -2.083 11.561 -8.524 19.357 -19.322 23.39 -27.698 7.928 -54.818 6.574 -81.356 -4.068 -10.458 -15.102 -14.186 -31.713 -11.186 -49.831 5.369 -12.002 14.522 -17.424 27.458 -16.271Z"/><path style="opacity:1" fill="#deba96" d="M580.678 344.746a753.539 753.539 0 0 1 93.559 3.051c11.632 22.776 8.921 43.792 -8.136 63.051 -28.493 9.301 -56.967 9.301 -85.424 0 -12.917 -16.416 -17.325 -35.058 -13.22 -55.932 3.671 -4.731 8.079 -8.119 13.22 -10.169Z"/><path style="opacity:1" fill="#deba96" d="M680.339 409.831a743.748 743.748 0 0 1 -23.39 97.627c-4.582 13.436 -13.735 17.843 -27.458 13.22 -22.283 -11.103 -41.943 -25.68 -58.983 -43.729 -3.289 -2.994 -7.357 -4.351 -12.203 -4.068 -7.159 1.143 -14.278 2.5 -21.356 4.068a300.925 300.925 0 0 1 -19.322 -4.068c-4.184 -0.13 -7.572 1.224 -10.169 4.068a697.993 697.993 0 0 1 -58.983 41.695 51.332 51.332 0 0 1 -20.339 0c-10.092 -13.068 -17.211 -27.643 -21.356 -43.729a590.579 590.579 0 0 1 -17.288 -76.271c0.057 -2.176 0.734 -3.871 2.034 -5.085 3.511 17.719 14.357 27.551 32.542 29.492 18.305 1.357 36.61 1.357 54.915 0a88.241 88.241 0 0 0 16.271 -4.068c9.631 -2.172 16.072 -7.934 19.322 -17.288 6.092 -17.095 8.463 -34.723 7.119 -52.881h32.542a200.201 200.201 0 0 0 1.017 28.475c1.019 26.089 14.239 41.343 39.661 45.763 18.982 1.357 37.967 1.357 56.949 0 10.871 -1.711 20.363 -6.118 28.475 -13.22Zm-311.186 -69.153c3.572 2.14 4.928 5.53 4.068 10.169h6.102a155.052 155.052 0 0 1 6.102 34.576 2051.268 2051.268 0 0 1 8.136 73.22c-6.065 0.805 -11.489 -0.551 -16.271 -4.068a68.746 68.746 0 0 1 -13.22 -18.305c-11.064 -25.865 -15.472 -52.983 -13.22 -81.356 3.415 -3.051 6.126 -6.779 8.136 -11.186 3.102 -2.052 6.492 -3.069 10.169 -3.051Z"/><path style="opacity:1" fill="#deba97" d="M704.746 342.712c11.931 0.059 18.033 6.161 18.305 18.305 1.424 22.192 -0.95 43.887 -7.119 65.085 -5.713 16.906 -16.9 27.753 -33.559 32.542 1.017 -18.968 1.694 -37.951 2.034 -56.949a1839.437 1839.437 0 0 0 11.186 -48.814c2.758 -1.79 5.809 -2.469 9.153 -2.034v-8.136Z"/><path style="opacity:1" fill="#81705e" d="M385.424 385.424c3.958 1.088 5.992 3.799 6.102 8.136 -1.3 1.214 -1.977 2.908 -2.034 5.085a590.579 590.579 0 0 0 17.288 76.271c4.145 16.086 11.264 30.661 21.356 43.729 6.779 1.357 13.56 1.357 20.339 0a697.993 697.993 0 0 0 58.983 -41.695c10.147 6.067 20.317 12.169 30.508 18.305a10837.802 10837.802 0 0 1 32.542 -18.305c17.04 18.049 36.7 32.626 58.983 43.729 13.723 4.623 22.875 0.216 27.458 -13.22a743.748 743.748 0 0 0 23.39 -97.627c0.325 -3.362 1.68 -6.073 4.068 -8.136 -0.34 18.999 -1.017 37.981 -2.034 56.949 -0.982 40.91 -11.152 78.877 -30.508 113.898a941.211 941.211 0 0 1 -32.542 46.78 102.165 102.165 0 0 1 -28.475 17.288c-34.127 7.401 -68.026 6.724 -101.695 -2.034a307.509 307.509 0 0 1 -55.932 -57.966c-1.017 14.221 -1.355 28.458 -1.017 42.712l-4.068 -46.78a1081.959 1081.959 0 0 1 -25.424 -44.746 482.99 482.99 0 0 1 -9.153 -69.153 2051.268 2051.268 0 0 0 -8.136 -73.22Z"/><path style="opacity:1" fill="#aa8771" d="M570.508 476.949a10837.802 10837.802 0 0 0 -32.542 18.305 11631.474 11631.474 0 0 0 -30.508 -18.305c2.597 -2.843 5.986 -4.198 10.169 -4.068 6.397 1.568 12.838 2.923 19.322 4.068 7.078 -1.568 14.197 -2.925 21.356 -4.068 4.847 -0.283 8.915 1.074 12.203 4.068Z"/><path style="opacity:1" fill="#deba96" d="M511.525 521.695a570.346 570.346 0 0 1 75.254 3.051c11.136 8.15 10.458 15.608 -2.034 22.373 -26.88 8.738 -54 9.415 -81.356 2.034a140.746 140.746 0 0 1 -13.22 -9.153c-1.822 -5.136 -0.805 -9.543 3.051 -13.22a261.12 261.12 0 0 1 18.305 -5.085Z"/><path style="opacity:1" fill="#ab8871" d="M651.864 572.542a832.995 832.995 0 0 0 3.051 97.627c7.316 14.005 18.502 23.496 33.559 28.475 -5.062 20.288 -13.875 38.593 -26.441 54.915 -76.759 -44.766 -153.37 -89.512 -229.831 -134.237 -0.338 -14.254 0 -28.491 1.017 -42.712a307.509 307.509 0 0 0 55.932 57.966c33.669 8.758 67.568 9.435 101.695 2.034a102.165 102.165 0 0 0 28.475 -17.288 941.211 941.211 0 0 0 32.542 -46.78Z"/><path style="opacity:1" fill="#deba96" d="m428.136 572.542 4.068 46.78c76.46 44.725 153.071 89.471 229.831 134.237 -33.521 32.323 -73.861 48.594 -121.017 48.814 -44.827 -0.927 -84.488 -15.502 -118.983 -43.729 -13.184 -18.169 -22.676 -38.17 -28.475 -60a225.092 225.092 0 0 1 20.339 -13.22 61.729 61.729 0 0 0 11.186 -15.254 847.627 847.627 0 0 0 3.051 -97.627Z"/><path style="opacity:1" fill="#1f2120" d="M393.559 698.644c5.799 21.83 15.291 41.831 28.475 60 34.495 28.226 74.156 42.801 118.983 43.729 47.156 -0.22 87.496 -16.491 121.017 -48.814 12.565 -16.322 21.378 -34.627 26.441 -54.915a691.094 691.094 0 0 1 105.763 21.356c31.532 10.159 58.989 26.77 82.373 49.831 30.557 44.5 46.489 93.991 47.797 148.475 -93.472 92.831 -206.016 146.39 -337.627 160.678h-95.593c-130.574 -14.109 -242.439 -66.991 -335.593 -158.644a420.447 420.447 0 0 1 21.356 -99.661c12.915 -35.719 35.628 -63.177 68.136 -82.373 46.991 -21.753 96.484 -34.973 148.475 -39.661Z"/></svg>